<?xml version="1.0" standalone="no"?>
<!DOCTYPE svg PUBLIC "-//W3C//DTD SVG 20010904//EN"
 "http://www.w3.org/TR/2001/REC-SVG-20010904/DTD/svg10.dtd">
<svg version="1.0" xmlns="http://www.w3.org/2000/svg"
 width="221.000000pt" height="300.000000pt" viewBox="0 0 221.000000 300.000000"
 preserveAspectRatio="xMidYMid meet">

<g transform="translate(0.000000,300.000000) scale(0.100000,-0.100000)"
fill="red" stroke="black">
<path d="M1105 2969 c-4 -17 -9 -28 -12 -25 -11 11 -43 -15 -43 -34 0 -24 15
-26 24 -4 5 13 9 14 21 4 10 -9 12 -17 5 -30 -15 -29 -57 -33 -102 -11 l-41
20 6 -67 c2 -37 8 -74 11 -83 5 -12 1 -15 -15 -15 -29 1 -37 -24 -10 -31 21
-5 21 -7 5 -24 -20 -22 -45 -24 -62 -7 -9 9 -12 7 -12 -10 0 -18 -6 -22 -28
-22 -16 0 -36 8 -45 18 -19 21 -22 42 -7 42 6 0 10 -4 10 -10 0 -13 27 -13 36
1 3 6 -1 18 -9 27 -23 22 -67 2 -67 -30 0 -22 -3 -23 -57 -20 -32 2 -64 9 -70
14 -10 8 -13 5 -13 -10 0 -12 -10 -27 -22 -33 -13 -7 -43 -27 -68 -46 -27 -21
-52 -32 -63 -29 -13 3 -17 0 -13 -10 5 -12 -2 -15 -37 -12 -37 3 -42 6 -45 29
-3 26 23 58 36 44 4 -4 1 -10 -6 -12 -15 -6 -6 -23 13 -23 19 0 27 30 13 47
-6 8 -20 12 -30 10 -12 -4 -18 0 -18 13 0 28 -11 51 -21 44 -5 -3 -9 -18 -9
-33 0 -24 -3 -28 -23 -24 -27 5 -50 -17 -41 -41 7 -18 29 -21 39 -6 3 6 1 10
-4 10 -6 0 -11 5 -11 10 0 21 30 9 36 -15 11 -45 0 -55 -61 -55 -52 0 -55 -1
-45 -19 27 -52 -8 -166 -41 -134 -10 10 -9 16 2 29 12 14 11 16 -6 13 -13 -3
-21 -14 -23 -31 -3 -22 2 -29 23 -34 21 -5 33 -1 53 20 23 22 27 35 27 81 l0
55 111 0 c72 0 114 4 122 12 9 9 12 8 12 -5 0 -20 11 -22 27 -6 8 8 14 5 22
-10 16 -28 31 -27 31 3 0 13 3 32 6 41 6 14 8 13 21 -5 18 -26 43 -27 36 -1
-12 48 84 82 131 46 17 -13 17 -15 2 -30 -23 -23 -20 -35 9 -35 40 0 59 -57
31 -95 -11 -16 -17 -17 -29 -7 -12 10 -15 9 -19 -6 -11 -42 -90 -28 -96 16 -4
23 13 52 29 52 5 0 9 -6 9 -14 0 -19 14 -28 34 -20 25 10 19 43 -9 54 -51 19
-103 -25 -90 -77 5 -22 3 -24 -17 -18 -13 4 -34 18 -46 32 -17 19 -26 23 -31
14 -6 -9 -19 -7 -54 8 -66 29 -111 35 -151 21 -39 -13 -56 -35 -56 -73 0 -49
69 -76 105 -41 20 20 16 48 -8 52 -12 3 -17 -3 -17 -22 0 -28 -10 -32 -41 -16
-44 24 -6 82 55 82 34 0 136 -29 136 -39 0 -3 -10 -13 -22 -23 -23 -19 -23
-19 27 -13 36 4 70 -1 123 -17 108 -33 170 -17 212 53 24 38 26 115 5 143 -19
25 -19 34 0 34 8 0 15 -4 15 -10 0 -5 5 -10 10 -10 6 0 10 6 10 13 0 7 14 26
30 42 17 16 30 35 30 43 0 8 25 -12 55 -44 35 -37 55 -67 55 -82 0 -24 0 -24
-29 7 -80 86 -177 -32 -127 -154 28 -65 100 -72 137 -12 l20 32 -3 -45 -3 -45
-487 -3 -488 -2 0 -105 0 -105 995 0 995 0 0 105 0 105 -490 0 -490 0 0 48 0
47 20 -32 c22 -36 60 -51 94 -35 28 12 56 69 56 112 0 43 -28 100 -56 112 -34
16 -72 1 -94 -35 l-20 -32 0 32 c0 24 12 43 55 88 30 31 55 50 55 42 0 -7 14
-26 30 -42 17 -16 30 -35 30 -42 0 -7 5 -13 10 -13 6 0 10 5 10 10 0 6 7 10
15 10 19 0 19 -9 0 -34 -21 -28 -19 -105 5 -143 42 -70 104 -86 212 -53 53 16
87 21 123 17 50 -6 50 -6 28 13 -13 10 -23 20 -23 23 0 10 102 39 136 39 61 0
99 -58 55 -82 -31 -16 -41 -12 -41 16 0 19 -5 25 -17 22 -24 -4 -28 -32 -8
-52 36 -36 105 -8 105 43 0 36 -17 59 -56 71 -40 14 -85 8 -151 -21 -35 -15
-48 -17 -54 -8 -5 9 -14 5 -31 -14 -12 -14 -34 -28 -46 -32 -21 -6 -23 -4 -18
13 16 50 -47 107 -93 82 -25 -13 -28 -45 -5 -54 20 -8 34 1 34 20 0 8 4 14 9
14 16 0 33 -29 29 -52 -6 -44 -85 -58 -96 -16 -4 15 -7 16 -19 6 -12 -10 -18
-9 -29 7 -28 38 -9 95 31 95 29 0 32 12 9 35 -15 15 -15 17 2 30 47 36 143 2
131 -46 -7 -26 18 -25 36 1 13 18 15 19 21 5 3 -9 6 -28 6 -41 0 -30 15 -31
31 -3 8 15 14 18 22 10 16 -16 27 -14 27 6 0 13 3 14 12 5 8 -8 50 -12 123
-12 l110 0 0 -55 c0 -46 4 -59 27 -81 20 -21 32 -25 53 -20 21 5 26 12 23 34
-2 17 -10 28 -23 31 -17 3 -18 1 -6 -13 11 -13 12 -19 2 -29 -33 -32 -68 82
-41 134 10 18 7 19 -45 19 -61 0 -72 10 -61 55 6 24 36 36 36 15 0 -5 -5 -10
-11 -10 -5 0 -7 -4 -4 -10 10 -15 32 -12 39 6 9 24 -14 46 -41 41 -20 -4 -23
0 -23 24 0 15 -4 30 -9 33 -10 7 -21 -16 -21 -44 0 -13 -6 -17 -18 -13 -10 2
-24 -2 -30 -10 -14 -17 -6 -47 13 -47 19 0 28 17 13 23 -7 2 -10 8 -6 12 13
14 39 -18 36 -44 -3 -23 -8 -26 -45 -29 -35 -3 -42 0 -37 12 4 10 0 13 -13 10
-11 -3 -36 8 -63 29 -25 19 -55 39 -67 46 -13 6 -23 21 -23 33 0 15 -3 18 -12
10 -7 -5 -39 -12 -71 -14 -54 -3 -57 -2 -57 20 0 32 -44 52 -67 30 -8 -9 -12
-21 -9 -27 9 -14 36 -14 36 -1 0 6 5 10 10 10 16 0 11 -26 -8 -43 -10 -10 -31
-17 -45 -17 -21 0 -27 5 -27 22 0 17 -3 19 -12 10 -17 -17 -42 -15 -62 7 -16
17 -16 19 5 24 27 7 19 32 -10 31 -18 -1 -21 3 -16 20 4 12 9 50 12 85 l6 64
-24 -17 c-47 -32 -138 -11 -123 29 8 20 21 19 33 -2 9 -17 10 -17 16 -1 9 23
-2 38 -26 38 -14 0 -19 7 -19 24 0 37 -17 41 -25 5z m86 -142 c44 1 49 -2 49
-21 0 -54 -90 -186 -126 -186 -19 0 -37 27 -22 33 7 3 2 5 -11 4 -21 -2 -30 8
-58 61 -18 35 -33 75 -33 88 0 22 3 24 38 19 22 -4 47 0 62 8 17 10 29 11 38
3 8 -5 36 -9 63 -9z m-145 -271 c19 -14 18 -15 -6 -41 l-25 -26 -24 27 c-22
26 -22 28 -5 41 23 17 35 16 60 -1z m195 -3 c8 -10 14 -27 14 -38 0 -16 -8
-21 -42 -23 -41 -3 -42 -2 -41 28 1 46 43 65 69 33z m-251 -88 c0 -7 -6 -18
-14 -24 -11 -9 -15 -7 -19 10 -8 32 2 52 19 38 8 -6 14 -17 14 -24z m90 6 c0
-38 -16 -48 -30 -21 -9 16 -8 25 1 36 18 22 29 17 29 -15z m90 -1 c0 -5 7 -7
15 -4 10 4 15 0 15 -14 0 -24 -36 -36 -44 -15 -9 23 -7 43 4 43 6 0 10 -4 10
-10z m102 -18 c-3 -24 -8 -28 -28 -24 -16 3 -24 11 -24 24 0 14 5 18 15 15 8
-4 17 -2 20 3 12 20 21 9 17 -18z m-222 -57 c0 -17 -28 -27 -51 -20 -23 8 -24
23 -2 47 15 17 17 17 35 2 10 -10 18 -23 18 -29z m150 -6 c0 -11 -4 -17 -10
-14 -5 3 -10 13 -10 21 0 8 5 14 10 14 6 0 10 -9 10 -21z m50 12 c0 -5 -7 -14
-15 -21 -12 -10 -15 -10 -15 2 0 8 3 18 7 21 9 10 23 9 23 -2z m-930 -131 c11
-11 20 -31 20 -44 0 -45 -50 -72 -78 -44 -17 17 -15 74 4 92 20 21 30 20 54
-4z m1535 4 c21 -21 16 -83 -7 -98 -42 -26 -84 43 -54 88 19 30 38 33 61 10z
m-1658 -16 l10 -23 7 23 c4 12 12 22 17 22 5 0 2 -14 -7 -31 -9 -17 -14 -42
-11 -55 3 -16 0 -24 -9 -24 -9 0 -14 12 -14 33 0 18 -7 43 -16 55 -12 18 -13
22 -1 22 8 0 18 -10 24 -22z m175 -13 c-6 -52 3 -69 29 -55 17 10 20 19 17 51
-2 27 0 39 9 39 9 0 13 -17 13 -53 l0 -53 -37 -1 c-21 -1 -41 4 -45 10 -13 21
-9 97 5 97 9 0 12 -11 9 -35z m98 25 c0 -5 -5 -10 -11 -10 -5 0 -7 5 -4 10 3
6 8 10 11 10 2 0 4 -4 4 -10z m40 -41 c0 -47 1 -50 21 -44 15 5 19 4 15 -4 -4
-6 -19 -11 -34 -11 -26 0 -27 1 -24 55 5 69 22 73 22 4z m71 0 c-3 -49 -2 -51
19 -44 15 5 20 4 16 -4 -4 -6 -18 -11 -32 -11 -23 0 -24 3 -24 55 0 37 4 55
13 55 8 0 11 -15 8 -51z m123 16 c11 -19 23 -35 29 -35 5 0 7 16 5 35 -2 20 0
35 7 35 6 0 9 -21 7 -55 -2 -30 -8 -55 -12 -55 -5 0 -19 17 -32 38 l-23 37 -3
-37 c-5 -58 -22 -45 -22 17 0 65 16 72 44 20z m109 28 c-25 -5 -32 -33 -8 -33
8 0 15 -4 15 -10 0 -5 -7 -10 -16 -10 -9 0 -14 -7 -12 -17 2 -12 11 -17 27
-15 15 2 21 0 17 -7 -4 -6 -19 -11 -34 -11 -26 0 -27 2 -27 55 0 55 0 55 30
54 24 -1 25 -3 8 -6z m71 -33 c7 -47 22 -45 32 5 4 22 12 35 21 35 11 0 13 -4
6 -12 -6 -7 -16 -30 -22 -50 -16 -49 -29 -56 -42 -21 -5 15 -16 40 -24 56 -12
24 -12 27 4 27 14 0 20 -11 25 -40z m136 31 c0 -5 -9 -7 -20 -4 -14 4 -20 0
-20 -11 0 -9 7 -16 15 -16 8 0 15 -4 15 -10 0 -5 -7 -10 -15 -10 -9 0 -15 -9
-15 -21 0 -16 5 -20 20 -16 11 3 20 1 20 -4 0 -5 -12 -9 -27 -9 -27 0 -28 2
-28 55 0 53 1 55 28 55 15 0 27 -4 27 -9z m76 -6 c4 -8 1 -22 -6 -29 -9 -12
-8 -20 5 -40 21 -32 4 -35 -18 -3 l-16 22 0 -22 c-1 -13 -7 -23 -13 -23 -9 0
-12 16 -10 55 4 51 6 55 28 55 14 0 27 -7 30 -15z m73 8 c-1 -5 -1 -18 0 -30
2 -34 18 -28 27 10 l7 32 14 -34 c11 -27 17 -31 24 -20 5 8 9 22 9 32 0 9 5
17 11 17 6 0 9 -6 6 -14 -3 -8 -11 -32 -18 -55 -15 -49 -25 -52 -35 -8 l-7 32
-15 -35 -15 -35 -12 35 c-27 76 -27 80 -11 80 9 0 15 -3 15 -7z m172 -48 c24
-51 24 -55 7 -55 -10 0 -18 5 -18 10 0 6 -12 10 -26 10 -14 0 -23 -4 -19 -10
3 -5 -1 -10 -10 -10 -9 0 -15 3 -13 8 2 4 11 28 22 55 10 26 22 47 25 47 4 0
18 -25 32 -55z m70 4 c-3 -49 -2 -51 19 -44 15 5 20 4 16 -4 -4 -6 -18 -11
-32 -11 -23 0 -24 3 -24 55 0 37 4 55 13 55 8 0 11 -15 8 -51z m74 29 l-6 -23
20 23 c10 12 25 22 32 22 8 0 5 -8 -8 -22 l-22 -22 25 -33 c30 -40 13 -44 -22
-5 l-25 27 4 -27 c2 -17 0 -28 -7 -28 -7 0 -11 21 -11 55 0 39 4 55 13 55 9 0
11 -7 7 -22z m181 -25 c11 -27 21 -51 22 -55 2 -5 -3 -8 -12 -8 -9 0 -16 5
-16 10 0 6 -11 10 -25 10 -14 0 -25 -4 -25 -10 0 -5 -6 -10 -13 -10 -9 0 -6
16 12 55 14 30 29 55 32 55 4 0 15 -21 25 -47z m75 -4 c-3 -49 -2 -51 19 -44
15 5 20 4 16 -4 -4 -6 -18 -11 -32 -11 -23 0 -24 3 -24 55 0 37 4 55 13 55 8
0 11 -15 8 -51z m191 14 l23 -38 3 38 c5 57 22 44 22 -18 0 -30 -4 -55 -10
-55 -5 0 -20 16 -32 35 -29 44 -41 44 -36 0 2 -20 0 -35 -7 -35 -6 0 -10 23
-10 55 0 66 14 71 47 18z m128 28 c0 -5 -8 -8 -17 -7 -10 0 -19 -7 -21 -18 -3
-14 0 -17 12 -13 10 4 16 1 16 -8 0 -9 -6 -12 -15 -9 -11 4 -15 0 -15 -16 0
-18 4 -21 25 -18 13 3 22 1 19 -3 -3 -5 -17 -9 -32 -9 -26 0 -27 2 -27 55 0
53 1 55 28 55 15 0 27 -4 27 -9z"/>
<path d="M1141 2785 c-5 -11 -10 -14 -10 -7 -1 15 -41 16 -41 1 0 -5 6 -7 13
-3 6 4 4 -2 -5 -13 -21 -23 -22 -33 -5 -65 7 -14 18 -23 26 -20 10 3 12 0 8
-12 -4 -9 -2 -16 3 -16 6 0 10 12 10 26 0 17 4 23 12 18 7 -5 9 -2 5 9 -3 8 3
34 14 56 23 49 23 50 0 48 -11 -1 -24 -10 -30 -22z"/>
<path d="M1195 2528 c2 -34 35 -37 35 -4 0 19 -5 26 -18 26 -13 0 -18 -7 -17
-22z"/>
<path d="M267 2256 c-9 -23 8 -71 26 -74 19 -4 32 36 22 67 -7 24 -40 28 -48
7z"/>
<path d="M1807 2263 c-11 -11 -8 -58 5 -71 17 -17 26 -15 38 7 19 36 -17 90
-43 64z"/>
<path d="M1060 2249 c0 -11 5 -17 10 -14 6 3 10 13 10 21 0 8 -4 14 -10 14 -5
0 -10 -9 -10 -21z"/>
<path d="M1297 2230 c-3 -13 0 -20 9 -20 15 0 19 26 5 34 -5 3 -11 -3 -14 -14z"/>
<path d="M1627 2231 c-3 -14 0 -21 9 -21 16 0 18 9 5 28 -6 10 -10 9 -14 -7z"/>
<path d="M272 2093 c-12 -29 -7 -481 6 -583 55 -417 208 -812 420 -1082 43
-55 61 -65 96 -52 12 4 5 18 -31 62 -165 202 -321 538 -384 823 -39 180 -50
286 -56 522 l-6 239 69 -35 c106 -53 164 -67 285 -67 81 0 124 5 175 21 78 24
173 70 221 105 17 13 35 24 38 24 3 0 43 -22 88 -50 208 -125 431 -143 624
-48 38 18 71 35 75 36 12 5 9 -309 -3 -434 -42 -425 -200 -840 -432 -1132 -27
-35 -48 -65 -46 -67 2 -2 15 -6 29 -10 23 -5 32 3 92 82 211 279 365 681 407
1063 28 258 25 590 -6 590 -8 0 -40 -18 -71 -40 -126 -91 -327 -121 -477 -72
-68 23 -122 50 -193 98 -56 39 -120 34 -193 -15 -175 -117 -397 -133 -578 -42
-32 17 -72 41 -88 55 -36 30 -51 32 -61 9z"/>
<path d="M1075 2019 c-205 -140 -458 -168 -669 -75 l-55 25 -7 -35 c-9 -47 4
-290 22 -434 45 -349 161 -675 329 -925 88 -130 136 -185 159 -185 13 0 5 14
-29 52 -103 115 -228 329 -300 517 -58 150 -135 474 -135 569 l0 22 721 0 721
0 -6 -57 c-14 -116 -59 -311 -102 -443 -74 -225 -179 -421 -316 -588 -66 -80
-71 -108 -8 -47 116 113 276 405 354 644 77 238 110 432 122 730 7 168 6 174
-12 168 -10 -3 -49 -17 -86 -31 -195 -74 -403 -49 -594 69 -40 25 -73 45 -75
45 -2 0 -17 -9 -34 -21z m-615 -209 c-6 -11 -10 -55 -8 -98 3 -76 3 -77 28
-74 14 2 31 9 38 14 13 12 16 0 6 -26 -5 -12 -20 -16 -64 -16 l-58 0 10 37 c6
21 8 71 6 110 l-5 73 29 0 c26 0 28 -2 18 -20z m139 -12 c-12 -43 -12 -130 1
-162 9 -25 8 -26 -25 -26 -34 0 -34 0 -23 31 6 17 8 66 6 110 l-5 79 28 0 c26
0 27 -1 18 -32z m86 19 c-3 -7 5 -44 18 -82 l24 -70 22 68 c13 37 20 74 17 82
-4 11 2 15 23 15 l28 0 -34 -87 c-52 -133 -52 -133 -66 -133 -7 0 -24 36 -41
88 -15 48 -34 97 -42 110 -14 21 -13 22 20 22 24 0 34 -4 31 -13z m275 -7 c0
-17 -3 -18 -26 -10 -34 13 -44 6 -44 -32 0 -29 2 -30 30 -24 27 5 30 3 30 -19
0 -22 -3 -24 -30 -18 -29 5 -30 4 -30 -30 0 -45 12 -52 50 -33 30 15 35 11 24
-18 -5 -12 -20 -16 -63 -16 l-56 0 0 110 0 110 58 0 c50 0 57 -2 57 -20z m140
0 c11 -11 20 -28 20 -38 0 -11 -9 -27 -20 -37 -26 -24 -26 -28 10 -81 29 -41
30 -44 10 -44 -13 0 -31 16 -51 48 l-31 47 4 -47 c3 -45 2 -48 -22 -48 l-25 0
0 110 0 110 43 0 c29 0 48 -6 62 -20z m174 -1 c14 -11 26 -29 26 -40 0 -27
-44 -69 -71 -69 -20 0 -21 -4 -17 -45 5 -43 4 -45 -20 -45 l-25 0 6 92 c3 53
2 99 -4 110 -9 16 -5 18 34 18 30 0 53 -7 71 -21z m167 11 c45 -24 63 -114 34
-169 -16 -32 -64 -56 -93 -47 -10 4 -30 18 -43 32 -20 21 -24 36 -24 86 0 53
3 62 28 84 30 25 66 31 98 14z m214 -13 c53 -45 43 -162 -16 -192 -40 -21 -54
-19 -91 14 -30 27 -33 34 -33 89 0 50 4 65 24 86 31 33 80 35 116 3z m107 -78
l-3 -102 24 7 c14 3 33 9 42 12 15 6 16 4 6 -14 -10 -18 -21 -22 -64 -22 l-52
0 0 110 0 110 25 0 25 0 -3 -101z"/>
<path d="M1040 1764 c0 -23 4 -34 12 -32 33 11 36 68 3 68 -11 0 -15 -10 -15
-36z"/>
<path d="M1210 1761 c0 -28 4 -41 14 -41 40 0 48 73 9 78 -21 3 -23 -1 -23
-37z"/>
<path d="M1370 1790 c-25 -25 -28 -105 -4 -138 33 -47 84 -11 84 61 0 72 -43
114 -80 77z"/>
<path d="M1567 1792 c-22 -24 -23 -110 -1 -140 8 -12 24 -22 34 -22 48 0 68
104 29 154 -24 31 -40 33 -62 8z"/>
<path d="M579 1516 c-50 -24 -29 -116 26 -116 45 0 72 65 43 102 -19 23 -42
28 -69 14z m50 -20 c7 -8 11 -27 9 -43 -3 -24 -8 -28 -33 -28 -27 0 -30 4 -33
34 -5 46 31 69 57 37z"/>
<path d="M709 1516 c-50 -24 -29 -116 26 -116 45 0 72 65 43 102 -19 23 -42
28 -69 14z m50 -20 c7 -8 11 -27 9 -43 -2 -21 -9 -29 -27 -31 -13 -2 -28 2
-32 10 -29 45 17 104 50 64z"/>
<path d="M1392 1520 c-12 -5 -27 -21 -32 -35 -18 -49 22 -94 76 -83 33 6 24
23 -13 23 -34 0 -38 3 -41 28 -5 38 15 60 50 55 30 -5 38 6 12 16 -19 7 -23 7
-52 -4z"/>
<path d="M201 1454 c8 -81 24 -102 32 -43 6 43 -13 109 -31 109 -4 0 -5 -30
-1 -66z"/>
<path d="M465 1460 c0 -43 4 -60 13 -60 9 0 12 10 10 28 -2 21 1 26 15 24 9
-2 17 2 17 8 0 5 -7 10 -15 10 -25 0 -18 38 8 43 15 3 10 5 -13 6 l-35 1 0
-60z"/>
<path d="M819 1513 c22 -4 23 -8 19 -59 -4 -41 -1 -54 9 -54 9 0 13 16 13 54
0 44 4 55 18 59 9 3 -5 5 -33 4 -27 0 -39 -2 -26 -4z"/>
<path d="M920 1461 c0 -52 3 -61 18 -61 31 0 56 25 47 46 -4 10 -8 30 -9 44
-1 19 -7 26 -28 28 -28 3 -28 3 -28 -57z m40 35 c0 -8 -4 -18 -10 -21 -5 -3
-10 3 -10 14 0 12 5 21 10 21 6 0 10 -6 10 -14z m3 -50 c3 -8 -1 -20 -9 -26
-12 -10 -14 -8 -14 14 0 28 14 35 23 12z"/>
<path d="M1027 1464 c-28 -57 -28 -88 0 -46 19 28 53 29 60 2 3 -11 12 -20 20
-20 8 0 13 3 11 8 -2 4 -15 31 -27 60 -13 28 -27 52 -30 52 -4 0 -19 -25 -34
-56z m43 1 c0 -8 -4 -15 -10 -15 -5 0 -10 7 -10 15 0 8 5 15 10 15 6 0 10 -7
10 -15z"/>
<path d="M1140 1460 c0 -60 0 -60 29 -60 17 0 33 5 36 10 4 6 -5 10 -20 10
-26 0 -27 2 -23 50 2 35 -1 50 -9 50 -9 0 -13 -19 -13 -60z"/>
<path d="M1230 1460 c0 -60 0 -60 29 -60 17 0 33 5 36 10 4 6 -5 10 -20 10
-26 0 -27 2 -23 50 2 35 -1 50 -9 50 -9 0 -13 -19 -13 -60z"/>
<path d="M1490 1460 l0 -60 30 0 c17 0 30 5 30 10 0 6 -9 10 -20 10 -17 0 -20
7 -20 50 0 28 -4 50 -10 50 -6 0 -10 -27 -10 -60z"/>
<path d="M1570 1471 c0 -57 12 -70 63 -68 l37 1 0 58 c0 42 -4 58 -14 58 -9 0
-12 -8 -8 -25 8 -44 -6 -75 -33 -75 -23 0 -25 3 -25 50 0 28 -4 50 -10 50 -5
0 -10 -22 -10 -49z"/>
<path d="M1700 1461 c0 -52 3 -61 18 -61 31 0 56 25 47 46 -4 10 -8 30 -9 44
-1 19 -7 26 -28 28 -28 3 -28 3 -28 -57z m40 35 c0 -8 -4 -18 -10 -21 -5 -3
-10 3 -10 14 0 12 5 21 10 21 6 0 10 -6 10 -14z m6 -47 c3 -6 -1 -18 -10 -27
-15 -15 -16 -14 -16 11 0 27 13 36 26 16z"/>
<path d="M1995 1489 c-12 -21 -14 -43 -9 -74 8 -56 24 -49 24 10 0 24 4 55 10
69 14 37 -6 33 -25 -5z"/>
<path d="M85 1419 c-12 -67 -11 -127 3 -141 9 -9 12 -2 12 35 0 51 16 64 23
20 2 -16 5 -3 6 28 1 42 -4 63 -17 80 l-19 22 -8 -44z"/>
<path d="M2108 1440 c-22 -36 -29 -72 -19 -105 l9 -30 1 28 c2 46 21 30 21
-19 0 -25 4 -43 9 -40 16 11 20 71 7 131 -12 59 -13 59 -28 35z"/>
<path d="M166 1368 c-3 -19 -24 -75 -46 -124 -22 -49 -40 -98 -40 -109 -1 -34
-15 -49 -30 -30 -23 28 -40 19 -29 -17 5 -18 9 -59 9 -91 0 -61 9 -87 43 -124
31 -34 43 -29 39 16 -3 30 5 55 33 110 l37 72 24 -33 c36 -49 48 -97 35 -143
-14 -52 -5 -57 30 -16 44 53 48 107 15 207 -17 52 -24 92 -20 108 5 22 3 26
-15 26 -17 0 -21 6 -21 33 0 44 -16 97 -39 126 l-18 24 -7 -35z m38 -156 c9
-35 30 -94 46 -132 29 -65 41 -152 23 -163 -5 -3 -8 14 -8 36 -1 29 -15 71
-46 134 -44 89 -46 92 -57 67 -7 -14 -12 -30 -12 -35 0 -6 -13 -44 -30 -86
-17 -41 -30 -91 -30 -111 0 -26 -3 -33 -11 -25 -28 28 -32 157 -4 133 9 -8 14
-3 19 20 5 27 89 231 92 227 1 -1 9 -31 18 -65z"/>
<path d="M2032 1388 c-21 -26 -42 -87 -42 -124 0 -28 -5 -37 -21 -41 -16 -5
-20 -12 -16 -32 3 -14 -6 -59 -19 -100 -36 -110 -28 -178 25 -225 28 -25 32
-19 18 30 -9 34 -8 50 6 85 10 24 25 54 35 67 l18 23 38 -72 c29 -56 37 -81
34 -110 -4 -48 11 -51 46 -8 30 36 33 47 39 157 5 82 0 95 -23 67 -19 -23 -27
-18 -32 23 -3 21 -20 72 -38 113 -18 41 -38 94 -44 118 -10 36 -14 41 -24 29z
m48 -218 c21 -47 41 -100 45 -118 5 -27 9 -31 21 -21 12 10 14 2 14 -48 0 -37
-6 -67 -15 -79 -13 -18 -14 -16 -15 21 0 22 -11 63 -23 90 -13 28 -27 64 -31
80 -4 17 -12 42 -18 57 -10 27 -11 27 -51 -50 -22 -42 -46 -102 -53 -132 l-12
-55 -1 47 c-1 33 10 74 33 130 19 46 37 99 41 118 12 61 18 77 23 60 2 -8 21
-53 42 -100z"/>
<path d="M1447 1321 c-29 -105 -94 -184 -220 -270 -34 -23 -56 -49 -77 -92
-17 -32 -35 -59 -40 -59 -7 0 -7 6 -1 18 6 9 21 42 34 72 18 42 43 73 104 128
94 85 132 146 118 188 -13 35 -34 43 -28 10 8 -42 -28 -98 -123 -191 -75 -74
-94 -98 -103 -135 -17 -65 -19 -70 -31 -70 -14 0 -13 56 2 83 6 12 29 42 50
67 33 38 39 50 35 77 -5 28 -3 32 20 35 15 2 28 9 31 16 2 8 -2 10 -13 6 -9
-4 -43 1 -76 11 -51 16 -63 16 -84 5 -14 -7 -28 -11 -31 -8 -6 7 -44 -22 -44
-34 0 -4 7 -5 15 -2 8 4 15 1 15 -5 0 -6 -4 -11 -10 -11 -5 0 -7 -7 -4 -15 4
-10 0 -15 -12 -13 -35 3 -54 -2 -54 -13 0 -7 9 -9 23 -5 14 3 33 -1 46 -10 21
-15 24 -15 39 1 10 10 12 15 7 12 -16 -8 -39 9 -31 22 11 18 76 14 83 -6 5
-12 -16 -37 -75 -92 -93 -88 -102 -102 -102 -169 0 -87 53 -139 174 -172 l61
-17 3 -41 c2 -31 7 -40 18 -35 9 3 14 -2 14 -16 0 -11 9 -44 20 -72 l19 -51
-32 5 c-19 3 -40 0 -50 -8 -21 -15 -23 -29 -3 -22 10 4 13 1 9 -9 -6 -17 8
-19 24 -3 7 7 38 10 82 7 51 -3 71 0 71 9 0 6 -15 13 -32 15 -38 3 -52 26 -63
101 -6 46 -5 48 15 42 l21 -7 -21 34 c-11 18 -20 47 -20 65 0 20 -8 38 -22 50
-38 31 -65 67 -72 93 -6 23 -6 23 5 5 7 -11 38 -48 69 -82 36 -38 61 -76 68
-100 l10 -38 1 38 c1 52 -11 73 -77 134 -32 28 -55 54 -52 57 3 3 17 -5 31
-18 13 -12 31 -21 39 -19 11 3 12 2 3 -4 -9 -7 -1 -19 31 -46 55 -45 86 -108
86 -173 l1 -49 16 30 c9 17 17 51 17 77 1 58 -23 93 -88 129 l-47 26 32 9 c43
12 50 34 10 34 -39 0 -92 20 -71 28 8 2 21 10 29 16 11 9 9 12 -10 17 -22 6
-22 7 -3 8 12 1 27 8 34 16 11 13 8 15 -16 16 -27 0 -27 1 -8 9 39 15 40 33 3
26 l-34 -7 31 15 c17 7 34 22 38 31 5 15 2 16 -21 11 -25 -6 -23 -4 12 20 110
74 215 208 215 275 0 59 -15 54 -33 -10z m-360 -127 c-3 -3 -12 -4 -19 -1 -8
3 -5 6 6 6 11 1 17 -2 13 -5z m-47 -18 c0 -3 -4 -8 -10 -11 -5 -3 -10 -1 -10
4 0 6 5 11 10 11 6 0 10 -2 10 -4z m-18 -220 c-14 -37 -14 -50 -3 -86 7 -24
26 -56 41 -72 16 -15 24 -28 18 -28 -6 0 -28 17 -49 39 -35 35 -39 44 -39 88
0 36 6 58 21 77 11 14 22 26 23 26 2 0 -4 -20 -12 -44z"/>
<path d="M1472 1265 c-13 -27 -39 -67 -58 -90 -18 -23 -31 -44 -28 -48 3 -3
-17 -21 -45 -39 -30 -19 -51 -40 -51 -51 0 -17 1 -17 31 0 80 46 180 158 164
184 -4 5 -2 16 5 24 6 8 10 26 8 41 -3 25 -5 23 -26 -21z m-14 -77 c-13 -17
-35 -38 -49 -47 -14 -8 -6 5 21 32 51 54 63 61 28 15z"/>
<path d="M1380 1279 c0 -40 -53 -111 -130 -175 -38 -32 -68 -60 -65 -62 7 -7
121 86 163 133 44 50 58 87 43 113 -9 14 -10 13 -11 -9z"/>
<path d="M940 1095 c-6 -8 -9 -19 -5 -25 7 -11 34 15 35 33 0 12 -17 8 -30 -8z"/>
<path d="M1413 1088 c-12 -13 -45 -37 -72 -53 -27 -17 -52 -38 -54 -47 -7 -24
2 -23 54 11 53 34 103 85 97 101 -2 7 -12 2 -25 -12z"/>
<path d="M1380 1010 c-14 -11 -42 -27 -62 -36 -34 -15 -55 -40 -44 -51 9 -9
109 52 124 75 20 30 12 35 -18 12z"/>
<path d="M157 959 c-21 -37 -27 -57 -22 -79 8 -35 25 -40 25 -7 0 13 6 32 14
42 13 18 14 18 20 -3 4 -12 5 -32 1 -44 -6 -23 -6 -23 10 -3 20 24 16 109 -6
130 -12 13 -18 7 -42 -36z"/>
<path d="M2016 989 c-20 -29 -21 -99 -1 -125 13 -16 14 -16 9 -1 -3 9 -3 29 1
45 6 26 7 26 21 8 8 -11 14 -31 14 -45 1 -25 1 -26 16 -6 18 24 12 53 -21 108
l-23 39 -16 -23z"/>
<path d="M1366 951 c-3 -5 -28 -17 -54 -27 -56 -22 -79 -45 -54 -56 30 -12 70
-8 75 7 5 11 1 12 -19 5 -45 -18 -50 -10 -8 11 44 21 81 55 72 65 -3 3 -9 1
-12 -5z"/>
<path d="M112 831 c-24 -6 -24 -6 7 -29 40 -30 91 -29 120 2 l22 23 -32 7
c-38 7 -86 6 -117 -3z"/>
<path d="M1982 833 l-24 -5 23 -24 c28 -30 84 -32 118 -3 13 11 21 22 17 26
-8 8 -104 13 -134 6z"/>
<path d="M140 746 c0 -8 -10 -16 -22 -18 -15 -2 -23 -10 -23 -23 0 -13 8 -21
23 -23 16 -3 22 -10 22 -28 0 -22 4 -25 33 -22 24 2 33 8 35 25 2 14 11 23 25
25 30 4 30 42 0 46 -13 2 -23 10 -23 18 0 9 -11 14 -35 14 -24 0 -35 -5 -35
-14z"/>
<path d="M2010 745 c0 -8 -8 -15 -19 -15 -26 0 -44 -23 -29 -38 7 -7 20 -12
29 -12 11 0 19 -9 21 -22 4 -33 62 -33 66 -1 2 13 11 23 25 25 32 4 34 36 3
44 -14 3 -26 12 -26 20 0 9 -12 14 -35 14 -24 0 -35 -5 -35 -15z"/>
<path d="M410 689 c-133 -69 -272 -95 -345 -65 -29 12 -35 13 -35 1 0 -35 137
-46 243 -19 70 17 208 83 215 102 6 18 -16 12 -78 -19z"/>
<path d="M1724 709 c-8 -13 -11 -10 73 -53 85 -42 201 -76 262 -76 56 0 118
19 126 38 4 10 1 12 -12 7 -90 -37 -205 -21 -350 49 -56 27 -95 41 -99 35z"/>
<path d="M1032 660 c-9 -38 -9 -40 9 -35 18 6 18 5 3 -32 -9 -21 -28 -57 -41
-81 -23 -38 -29 -42 -54 -37 -15 4 -37 1 -48 -5 -24 -12 -29 -32 -6 -24 12 5
14 2 8 -12 -6 -16 -5 -17 9 -6 19 15 91 20 131 9 21 -6 27 -4 27 8 0 9 -9 15
-23 15 -38 0 -38 10 -1 58 19 25 37 56 41 70 4 17 11 22 25 19 15 -4 18 -2 13
11 -4 9 -10 27 -12 39 -4 17 -45 43 -68 43 -2 0 -7 -18 -13 -40z"/>
<path d="M422 640 c-133 -68 -263 -96 -331 -72 -47 16 -40 -4 23 -65 l55 -52
-55 -50 c-65 -57 -62 -62 41 -69 125 -8 266 36 324 100 19 21 54 50 78 64 42
24 43 27 30 47 -7 12 -29 48 -48 80 -18 31 -36 56 -39 55 -3 0 -38 -18 -78
-38z"/>
<path d="M1663 599 c-24 -38 -43 -73 -43 -78 0 -5 20 -21 45 -35 24 -15 56
-42 70 -60 55 -73 285 -129 384 -95 17 6 31 14 30 17 0 4 -24 26 -54 50 l-54
42 54 53 c66 64 70 78 18 66 -77 -18 -226 18 -339 82 -28 16 -55 29 -60 29 -5
0 -28 -32 -51 -71z"/>
<path d="M568 474 c-76 -39 -108 -95 -71 -125 20 -17 120 -17 181 0 l42 12
-46 62 c-26 34 -50 65 -53 69 -3 3 -27 -4 -53 -18z"/>
<path d="M1552 436 c-62 -80 -62 -81 4 -95 139 -27 202 -1 164 68 -10 19 -99
81 -116 81 -5 0 -28 -24 -52 -54z"/>
<path d="M945 383 c-16 -2 -93 -18 -170 -36 -77 -17 -171 -31 -208 -31 -63 -1
-71 1 -93 27 l-24 28 -72 -27 c-96 -35 -252 -45 -312 -20 -55 23 -74 3 -20
-21 64 -29 218 -24 318 10 l79 28 24 -23 c39 -36 124 -36 290 0 283 63 420 62
694 -3 79 -19 163 -35 187 -35 48 0 106 21 118 43 8 13 21 11 98 -15 71 -24
106 -30 175 -30 84 0 171 22 171 43 0 12 -3 12 -68 -7 -76 -23 -183 -14 -289
24 l-82 29 -21 -29 c-19 -26 -26 -28 -88 -28 -37 0 -113 11 -171 25 -173 42
-268 55 -390 54 -64 -1 -129 -4 -146 -6z"/>
<path d="M925 326 c-44 -7 -134 -26 -200 -41 -124 -28 -210 -30 -241 -4 -8 6
-17 10 -19 7 -7 -7 90 -142 139 -193 38 -41 47 -45 88 -45 26 0 84 9 130 20
197 47 365 45 566 -6 119 -30 156 -27 207 18 38 33 155 183 155 199 0 5 -12 1
-27 -8 -40 -26 -122 -20 -303 22 -182 43 -359 54 -495 31z m118 -49 c4 -10 -2
-13 -19 -9 -22 4 -24 2 -19 -27 3 -17 7 -44 10 -61 4 -25 1 -30 -15 -30 -18 0
-20 7 -20 60 0 64 -1 66 -30 50 -16 -8 -18 -7 -14 4 10 26 98 36 107 13z m122
-57 c0 -56 -3 -70 -16 -70 -12 0 -15 12 -14 59 2 57 9 81 23 81 4 0 7 -31 7
-70z m102 44 c3 -9 1 -24 -4 -33 -7 -12 -8 -23 -1 -35 8 -14 6 -23 -10 -38
-36 -37 -85 0 -60 45 7 12 11 28 9 36 -5 25 8 41 34 41 14 0 28 -7 32 -16z
m-357 -4 c0 -5 -10 -9 -21 -7 -36 4 -33 -21 5 -37 28 -12 36 -21 36 -41 0 -28
-37 -52 -64 -42 -25 10 -18 23 12 22 38 0 35 26 -5 44 -37 16 -48 37 -32 57
13 16 69 19 69 4z m468 -38 c3 -25 -3 -39 -27 -62 -16 -17 -37 -30 -45 -30
-24 0 -19 15 9 28 27 13 34 32 11 32 -21 0 -29 17 -22 46 6 21 12 25 39 22 28
-3 32 -7 35 -36z m-588 18 c0 -5 -11 -10 -25 -10 -19 0 -25 -5 -25 -21 0 -18
4 -20 25 -15 18 5 25 2 25 -9 0 -8 -9 -15 -20 -15 -24 0 -27 -28 -4 -37 8 -3
20 -1 27 6 15 15 27 14 27 -3 0 -10 -81 -42 -85 -33 -1 1 -6 25 -12 52 -5 28
-12 56 -14 64 -2 9 6 17 21 22 37 11 60 10 60 -1z m688 -12 c20 -20 14 -45
-18 -71 -37 -31 -37 -35 -2 -39 21 -3 23 -6 11 -12 -10 -4 -36 -2 -60 4 l-44
12 30 15 c44 23 65 44 65 65 0 20 -26 25 -33 6 -2 -7 -8 -10 -12 -6 -4 4 -5
14 -2 23 7 18 48 20 65 3z m-388 -8 c0 -5 -7 -10 -15 -10 -8 0 -15 5 -15 10 0
6 7 10 15 10 8 0 15 -4 15 -10z"/>
<path d="M1226 263 c-12 -12 -6 -33 9 -33 8 0 15 6 15 14 0 17 -14 28 -24 19z"/>
<path d="M1210 195 c-14 -16 -5 -35 16 -35 15 0 20 35 5 44 -5 3 -14 -1 -21
-9z"/>
<path d="M1323 234 c-8 -21 13 -42 28 -27 13 13 5 43 -11 43 -6 0 -13 -7 -17
-16z"/>
<path d="M925 66 c-38 -7 -88 -19 -110 -25 -22 -6 -62 -11 -90 -11 -36 0 -46
-3 -35 -10 23 -15 86 -12 190 10 139 29 282 27 452 -6 110 -22 144 -25 170
-17 l33 11 -37 1 c-20 1 -83 13 -140 27 -127 31 -326 41 -433 20z"/>
</g>
</svg>
